<?xml version="1.0" encoding="iso-8859-1"?>
<!-- Generator: Adobe Illustrator 20.1.0, SVG Export Plug-In . SVG Version: 6.00 Build 0)  -->
<svg xmlns="http://www.w3.org/2000/svg" xmlns:xlink="http://www.w3.org/1999/xlink" version="1.1" id="&#1057;&#1083;&#1086;&#1081;_1" x="0px" y="0px" viewBox="0 0 64 64" style="enable-background:new 0 0 64 64;" xml:space="preserve">
<linearGradient id="SVGID_1__52515" gradientUnits="userSpaceOnUse" x1="32" y1="21.125" x2="32" y2="47.125" spreadMethod="reflect">
	<stop offset="0" style="stop-color:#6DC7FF"/>
	<stop offset="1" style="stop-color:#E6ABFF"/>
</linearGradient>
<path style="fill:url(#SVGID_1__52515);" d="M52,47H12c-1.103,0-2-0.897-2-2V23c0-1.103,0.897-2,2-2h40c1.103,0,2,0.897,2,2v22  C54,46.103,53.103,47,52,47z M12,23v22h40V23H12z"/>
<linearGradient id="SVGID_2__52515" gradientUnits="userSpaceOnUse" x1="12" y1="12.8333" x2="12" y2="15.3753" spreadMethod="reflect">
	<stop offset="0" style="stop-color:#6DC7FF"/>
	<stop offset="1" style="stop-color:#E6ABFF"/>
</linearGradient>
<rect x="10" y="13" style="fill:url(#SVGID_2__52515);" width="4" height="2"/>
<linearGradient id="SVGID_3__52515" gradientUnits="userSpaceOnUse" x1="18" y1="12.8333" x2="18" y2="15.3753" spreadMethod="reflect">
	<stop offset="0" style="stop-color:#6DC7FF"/>
	<stop offset="1" style="stop-color:#E6ABFF"/>
</linearGradient>
<rect x="16" y="13" style="fill:url(#SVGID_3__52515);" width="4" height="2"/>
<linearGradient id="SVGID_4__52515" gradientUnits="userSpaceOnUse" x1="24" y1="12.8333" x2="24" y2="15.3753" spreadMethod="reflect">
	<stop offset="0" style="stop-color:#6DC7FF"/>
	<stop offset="1" style="stop-color:#E6ABFF"/>
</linearGradient>
<rect x="22" y="13" style="fill:url(#SVGID_4__52515);" width="4" height="2"/>
<linearGradient id="SVGID_5__52515" gradientUnits="userSpaceOnUse" x1="32" y1="8.75" x2="32" y2="55.5002" spreadMethod="reflect">
	<stop offset="0" style="stop-color:#1A6DFF"/>
	<stop offset="1" style="stop-color:#C822FF"/>
</linearGradient>
<path style="fill:url(#SVGID_5__52515);" d="M55,9H9c-1.654,0-3,1.346-3,3v36c0,1.654,1.346,3,3,3h46c1.654,0,3-1.346,3-3V12  C58,10.346,56.654,9,55,9z M56,12v5h-6v-6h5C55.552,11,56,11.448,56,12z M9,11h39v6H8v-5C8,11.448,8.448,11,9,11z M55,49H9  c-0.552,0-1-0.448-1-1V19h48v29C56,48.552,55.552,49,55,49z"/>
<linearGradient id="SVGID_6__52515" gradientUnits="userSpaceOnUse" x1="32" y1="8.75" x2="32" y2="55.5002" spreadMethod="reflect">
	<stop offset="0" style="stop-color:#1A6DFF"/>
	<stop offset="1" style="stop-color:#C822FF"/>
</linearGradient>
<rect x="8" y="53" style="fill:url(#SVGID_6__52515);" width="48" height="2"/>
<linearGradient id="SVGID_7__52515" gradientUnits="userSpaceOnUse" x1="24.9392" y1="8.75" x2="24.9392" y2="55.5002" spreadMethod="reflect">
	<stop offset="0" style="stop-color:#1A6DFF"/>
	<stop offset="1" style="stop-color:#C822FF"/>
</linearGradient>
<path style="fill:url(#SVGID_7__52515);" d="M22.707,27.293l-1.414,1.414l5.294,5.292l-5.294,5.294l1.414,1.414l5.294-5.294  c0.779-0.779,0.779-2.046,0-2.825L22.707,27.293z"/>
<linearGradient id="SVGID_8__52515" gradientUnits="userSpaceOnUse" x1="37" y1="8.75" x2="37" y2="55.5002" spreadMethod="reflect">
	<stop offset="0" style="stop-color:#1A6DFF"/>
	<stop offset="1" style="stop-color:#C822FF"/>
</linearGradient>
<rect x="32" y="38" style="fill:url(#SVGID_8__52515);" width="10" height="2"/>
</svg>
